<?xml version="1.0" encoding="utf-8"?>
<!-- Generator: Adobe Illustrator 16.0.0, SVG Export Plug-In . SVG Version: 6.00 Build 0)  -->
<!DOCTYPE svg PUBLIC "-//W3C//DTD SVG 1.1//EN" "http://www.w3.org/Graphics/SVG/1.1/DTD/svg11.dtd">
<svg version="1.1" id="PRINT" xmlns="http://www.w3.org/2000/svg" xmlns:xlink="http://www.w3.org/1999/xlink" x="0px" y="0px"
	 width="595.28px" height="841.89px" viewBox="0 0 595.28 841.89" enable-background="new 0 0 595.28 841.89" xml:space="preserve">
<g>
	<defs>
		<rect id="SVGID_1_" width="595.28" height="839.844"/>
	</defs>
	<clipPath id="SVGID_2_">
		<use xlink:href="#SVGID_1_"  overflow="visible"/>
	</clipPath>
	<g clip-path="url(#SVGID_2_)">
		<g>
			<g>
				<polygon opacity="0.2" fill="#FECA35" points="441.442,866.633 284.148,803.845 86.394,783.71 				"/>
				<polygon fill="#FECA35" points="-4.329,870.834 -4.329,846.957 479.97,752.565 599.215,764.965 599.215,870.834 				"/>
				<polygon opacity="0.3" fill="#FECA35" points="479.97,752.565 599.215,794.128 599.215,870.834 				"/>
				<polygon opacity="0.4" fill="#FECA35" points="599.61,797.068 167.242,905.115 479.97,752.565 				"/>
				<polygon opacity="0.5" fill="#FECA35" points="479.97,752.565 -4.329,797.264 -4.329,847.123 				"/>
			</g>
			<g>
				<path fill="#FFFFFF" d="M274.32,63.144"/>
				<polygon fill="#FECA35" points="599.438,-6.881 599.438,89.034 115.138,215.694 -4.107,171.026 -4.107,-6.881 				"/>
				<polygon opacity="0.6" fill="#FECA35" points="-4.502,-6.83 115.138,215.694 319.102,-6.881 				"/>
				<polygon opacity="0.4" fill="#FECA35" points="-4.502,175.102 599.782,-2.919 115.138,219.605 				"/>
				<polygon opacity="0.32" fill="#FECA35" points="599.782,88.869 -4.502,-6.83 599.782,-6.83 				"/>
				<polygon opacity="0.3" fill="#FECA35" points="319.102,-6.881 319.102,165.182 465.209,125.495 				"/>
				<polygon opacity="0.5" fill="#FECA35" points="115.138,215.694 599.438,137.75 599.438,88.869 				"/>
			</g>
		</g>
	</g>
</g>
<text transform="matrix(1.0082 0 0 1 287.0601 72.4419)" fill="#010101" font-family="'Lato-Bold'" font-size="32">tripthi palan </text>
<text transform="matrix(1.0082 0 0 1 289.3599 106.8472)" fill="#FFFFFF" font-family="'Lato-Bold'" font-size="24">Mca @ mit</text>
<g>
	<g>
		<path fill-rule="evenodd" clip-rule="evenodd" fill="#DB8127" d="M42.257,237.603c-2.561-0.841-4.402-3.191-4.402-5.958
			c0-3.467,2.904-6.286,6.484-6.286c3.583,0,6.487,2.819,6.487,6.286c0,2.767-1.842,5.117-4.402,5.958
			c3.501,1.012,6.314,4.526,7.359,9.086H34.897C35.942,242.129,38.756,238.615,42.257,237.603z"/>
	</g>
	<rect x="34.071" y="256.137" fill="none" width="215.875" height="93.353"/>
	<text transform="matrix(1 0 0 1 34.0708 265.3667)"><tspan x="0" y="0" fill="#808184" font-family="'Lato-Regular'" font-size="13">I</tspan><tspan x="3.107" y="0" fill="#808184" font-family="'Lato-Regular'" font-size="13" letter-spacing="1"> </tspan><tspan x="7.501" y="0" fill="#808184" font-family="'Lato-Regular'" font-size="13">seek</tspan><tspan x="31.771" y="0" fill="#808184" font-family="'Lato-Regular'" font-size="13" letter-spacing="1"> </tspan><tspan x="36.165" y="0" fill="#808184" font-family="'Lato-Regular'" font-size="13">challenging</tspan><tspan x="100.124" y="0" fill="#808184" font-family="'Lato-Regular'" font-size="13" letter-spacing="1"> </tspan><tspan x="104.518" y="0" fill="#808184" font-family="'Lato-Regular'" font-size="13">opportunity</tspan><tspan x="169.985" y="0" fill="#808184" font-family="'Lato-Regular'" font-size="13" letter-spacing="1"> </tspan><tspan x="174.379" y="0" fill="#808184" font-family="'Lato-Regular'" font-size="13">where</tspan><tspan x="208.438" y="0" fill="#808184" font-family="'Lato-Regular'" font-size="13" letter-spacing="1"> </tspan><tspan x="212.832" y="0" fill="#808184" font-family="'Lato-Regular'" font-size="13">i </tspan><tspan x="0" y="18" fill="#808184" font-family="'Lato-Regular'" font-size="13">can</tspan><tspan x="19.305" y="18" fill="#808184" font-family="'Lato-Regular'" font-size="13"> </tspan><tspan x="22.69" y="18" fill="#808184" font-family="'Lato-Regular'" font-size="13">fully</tspan><tspan x="45.908" y="18" fill="#808184" font-family="'Lato-Regular'" font-size="13"> </tspan><tspan x="49.292" y="18" fill="#808184" font-family="'Lato-Regular'" font-size="13">use</tspan><tspan x="68.116" y="18" fill="#808184" font-family="'Lato-Regular'" font-size="13"> </tspan><tspan x="71.501" y="18" fill="#808184" font-family="'Lato-Regular'" font-size="13">my</tspan><tspan x="88.466" y="18" fill="#808184" font-family="'Lato-Regular'" font-size="13"> </tspan><tspan x="91.851" y="18" fill="#808184" font-family="'Lato-Regular'" font-size="13">skills</tspan><tspan x="117.421" y="18" fill="#808184" font-family="'Lato-Regular'" font-size="13"> </tspan><tspan x="120.806" y="18" fill="#808184" font-family="'Lato-Regular'" font-size="13">for</tspan><tspan x="135.99" y="18" fill="#808184" font-family="'Lato-Regular'" font-size="13"> </tspan><tspan x="139.375" y="18" fill="#808184" font-family="'Lato-Regular'" font-size="13">the</tspan><tspan x="157.405" y="18" fill="#808184" font-family="'Lato-Regular'" font-size="13"> </tspan><tspan x="160.789" y="18" fill="#808184" font-family="'Lato-Regular'" font-size="13">success</tspan><tspan x="201.557" y="18" fill="#808184" font-family="'Lato-Regular'" font-size="13"> </tspan><tspan x="204.942" y="18" fill="#808184" font-family="'Lato-Regular'" font-size="13">of </tspan><tspan x="0" y="36" fill="#808184" font-family="'Lato-Regular'" font-size="13">the</tspan><tspan x="18.03" y="36" fill="#808184" font-family="'Lato-Regular'" font-size="13" letter-spacing="4"> </tspan><tspan x="25.133" y="36" fill="#808184" font-family="'Lato-Regular'" font-size="13">organisation</tspan><tspan x="93.421" y="36" fill="#808184" font-family="'Lato-Regular'" font-size="13" letter-spacing="4"> </tspan><tspan x="100.524" y="36" fill="#808184" font-family="'Lato-Regular'" font-size="13">and</tspan><tspan x="121.337" y="36" fill="#808184" font-family="'Lato-Regular'" font-size="13" letter-spacing="4"> </tspan><tspan x="128.44" y="36" fill="#808184" font-family="'Lato-Regular'" font-size="13">also</tspan><tspan x="150.059" y="36" fill="#808184" font-family="'Lato-Regular'" font-size="13" letter-spacing="4"> </tspan><tspan x="157.162" y="36" fill="#808184" font-family="'Lato-Regular'" font-size="13">which</tspan><tspan x="190.025" y="36" fill="#808184" font-family="'Lato-Regular'" font-size="13" letter-spacing="4"> </tspan><tspan x="197.128" y="36" fill="#808184" font-family="'Lato-Regular'" font-size="13">will </tspan><tspan x="0" y="54" fill="#808184" font-family="'Lato-Regular'" font-size="13">help</tspan><tspan x="24.192" y="54" fill="#808184" font-family="'Lato-Regular'" font-size="13" letter-spacing="1"> </tspan><tspan x="28.633" y="54" fill="#808184" font-family="'Lato-Regular'" font-size="13">me</tspan><tspan x="45.988" y="54" fill="#808184" font-family="'Lato-Regular'" font-size="13" letter-spacing="1"> </tspan><tspan x="50.428" y="54" fill="#808184" font-family="'Lato-Regular'" font-size="13">in</tspan><tspan x="60.685" y="54" fill="#808184" font-family="'Lato-Regular'" font-size="13" letter-spacing="1"> </tspan><tspan x="65.126" y="54" fill="#808184" font-family="'Lato-Regular'" font-size="13">growing</tspan><tspan x="110.873" y="54" fill="#808184" font-family="'Lato-Regular'" font-size="13" letter-spacing="1"> </tspan><tspan x="115.313" y="54" fill="#808184" font-family="'Lato-Regular'" font-size="13">professionally</tspan><tspan x="190.621" y="54" fill="#808184" font-family="'Lato-Regular'" font-size="13" letter-spacing="1"> </tspan><tspan x="195.062" y="54" fill="#808184" font-family="'Lato-Regular'" font-size="13">and </tspan><tspan x="0" y="72" fill="#808184" font-family="'Lato-Regular'" font-size="13">personally </tspan></text>
</g>
<ellipse fill="#FECA35" cx="39.454" cy="398.305" rx="4.603" ry="4.588"/>
<text transform="matrix(1 0 0 1 50.1714 402.1387)" fill="#010101" font-family="'Lato-Regular'" font-size="11">May 2019-July 2019</text>
<g>
	<rect x="47.529" y="411.804" fill="none" width="231.833" height="31.834"/>
	<text transform="matrix(1.0039 0 0 1 47.5293 421.0342)"><tspan x="0" y="0" fill="#424242" font-family="'Lato-Regular'" font-size="13">Two months of summer Internship in </tspan><tspan x="0" y="18" fill="#424242" font-family="'Lato-Regular'" font-size="13">Techciti Technologies Pvt Ltd ,Bangalore</tspan></text>
</g>
<g>
	<g>
		<text transform="matrix(1.0082 0 0 1 65.0566 377.4863)"><tspan x="0" y="0" fill="#DB8127" font-family="'Lato-Bold'" font-size="18">E</tspan><tspan x="8.856" y="0" fill="#DB8127" font-family="'Lato-Bold'" font-size="18">XPERIENCE</tspan></text>
	</g>
	<g>
		<path fill-rule="evenodd" clip-rule="evenodd" fill="#DB8127" d="M53.456,377.556H36.304c-0.777,0-1.406-0.629-1.406-1.406
			v-10.165c0-0.777,0.629-1.406,1.406-1.406h17.152c0.776,0,1.406,0.629,1.406,1.406v10.165
			C54.862,376.927,54.232,377.556,53.456,377.556z"/>
		<g>
			<path fill="#DB8127" d="M47.304,366.031h-4.848c-0.565,0-1.024-0.46-1.024-1.024v-1.853c0-0.564,0.459-1.024,1.024-1.024h4.848
				c0.564,0,1.024,0.46,1.024,1.024v1.853C48.328,365.571,47.868,366.031,47.304,366.031z M42.456,363.036
				c-0.065,0-0.117,0.052-0.117,0.117v1.853c0,0.064,0.052,0.117,0.117,0.117h4.848c0.064,0,0.117-0.052,0.117-0.117v-1.853
				c0-0.065-0.053-0.117-0.117-0.117H42.456z"/>
		</g>
	</g>
</g>
<polygon fill="#FECA35" stroke="#BBBCBE" stroke-width="0.5" stroke-miterlimit="10" points="157.951,503.635 160.746,507.844 
	165.612,509.2 162.472,513.158 162.685,518.206 157.951,516.443 153.216,518.206 153.429,513.158 150.291,509.2 155.157,507.844 "/>
<polygon fill="#FECA35" stroke="#BBBCBE" stroke-width="0.5" stroke-miterlimit="10" points="181.201,503.635 183.996,507.844 
	188.862,509.2 185.722,513.158 185.935,518.206 181.201,516.443 176.466,518.206 176.679,513.158 173.541,509.2 178.407,507.844 "/>
<polygon fill="#FECA35" stroke="#BBBCBE" stroke-width="0.5" stroke-miterlimit="10" points="204.451,503.635 207.246,507.844 
	212.112,509.2 208.972,513.158 209.185,518.206 204.451,516.443 199.716,518.206 199.929,513.158 196.791,509.2 201.657,507.844 "/>
<polygon fill="#FECA35" stroke="#BBBCBE" stroke-width="0.5" stroke-miterlimit="10" points="227.701,503.635 230.496,507.844 
	235.362,509.2 232.222,513.158 232.435,518.206 227.701,516.443 222.966,518.206 223.179,513.158 220.041,509.2 224.907,507.844 "/>
<polygon fill="none" stroke="#6E7072" stroke-width="0.5" stroke-miterlimit="10" points="250.952,503.635 253.746,507.844 
	258.612,509.2 255.473,513.158 255.686,518.206 250.952,516.443 246.217,518.206 246.43,513.158 243.291,509.2 248.157,507.844 "/>
<g>
	<polygon fill="#FECA35" stroke="#BBBCBE" stroke-width="0.5" stroke-miterlimit="10" points="157.951,531.758 160.746,535.967 
		165.612,537.323 162.472,541.281 162.685,546.329 157.951,544.566 153.216,546.329 153.429,541.281 150.291,537.323 
		155.157,535.967 	"/>
	<polygon fill="#FECA35" stroke="#BBBCBE" stroke-width="0.5" stroke-miterlimit="10" points="181.201,531.758 183.996,535.967 
		188.862,537.323 185.722,541.281 185.935,546.329 181.201,544.566 176.466,546.329 176.679,541.281 173.541,537.323 
		178.407,535.967 	"/>
	<polygon fill="#FECA35" stroke="#BBBCBE" stroke-width="0.5" stroke-miterlimit="10" points="204.451,531.758 207.246,535.967 
		212.112,537.323 208.972,541.281 209.185,546.329 204.451,544.566 199.716,546.329 199.929,541.281 196.791,537.323 
		201.657,535.967 	"/>
</g>
<g>
	<polygon fill="#FECA35" stroke="#BBBCBE" stroke-width="0.5" stroke-miterlimit="10" points="157.951,559.882 160.746,564.091 
		165.612,565.447 162.472,569.405 162.685,574.453 157.951,572.69 153.216,574.453 153.429,569.405 150.291,565.447 
		155.157,564.091 	"/>
	<polygon fill="#FECA35" stroke="#BBBCBE" stroke-width="0.5" stroke-miterlimit="10" points="181.201,559.882 183.996,564.091 
		188.862,565.447 185.722,569.405 185.935,574.453 181.201,572.69 176.466,574.453 176.679,569.405 173.541,565.447 
		178.407,564.091 	"/>
	<polygon fill="#FECA35" stroke="#BBBCBE" stroke-width="0.5" stroke-miterlimit="10" points="204.451,559.882 207.246,564.091 
		212.112,565.447 208.972,569.405 209.185,574.453 204.451,572.69 199.716,574.453 199.929,569.405 196.791,565.447 
		201.657,564.091 	"/>
	<polygon fill="#FECA35" stroke="#BBBCBE" stroke-width="0.5" stroke-miterlimit="10" points="227.701,559.882 230.496,564.091 
		235.362,565.447 232.222,569.405 232.435,574.453 227.701,572.69 222.966,574.453 223.179,569.405 220.041,565.447 
		224.907,564.091 	"/>
</g>
<polygon fill="#FECA35" stroke="#BBBCBE" stroke-width="0.5" stroke-miterlimit="10" points="157.951,588.005 160.746,592.214 
	165.612,593.57 162.472,597.528 162.685,602.576 157.951,600.813 153.216,602.576 153.429,597.528 150.291,593.57 155.157,592.214 
	"/>
<polygon fill="#FECA35" stroke="#BBBCBE" stroke-width="0.5" stroke-miterlimit="10" points="181.201,588.005 183.996,592.214 
	188.862,593.57 185.722,597.528 185.935,602.576 181.201,600.813 176.466,602.576 176.679,597.528 173.541,593.57 178.407,592.214 
	"/>
<polygon fill="#FECA35" stroke="#BBBCBE" stroke-width="0.5" stroke-miterlimit="10" points="204.451,588.005 207.246,592.214 
	212.112,593.57 208.972,597.528 209.185,602.576 204.451,600.813 199.716,602.576 199.929,597.528 196.791,593.57 201.657,592.214 
	"/>
<polygon fill="#FECA35" stroke="#BBBCBE" stroke-width="0.5" stroke-miterlimit="10" points="227.701,588.005 230.496,592.214 
	235.362,593.57 232.222,597.528 232.435,602.576 227.701,600.813 222.966,602.576 223.179,597.528 220.041,593.57 224.907,592.214 
	"/>
<text transform="matrix(1 0 0 1 34.8516 515.6348)" fill="#010101" font-family="'Lato-Regular'" font-size="13">java</text>
<text transform="matrix(1 0 0 1 34.8516 544.1152)" fill="#010101" font-family="'Lato-Regular'" font-size="13">sql</text>
<text transform="matrix(1 0 0 1 34.8516 571.5957)" fill="#010101" font-family="'Lato-Regular'" font-size="13">basics of python</text>
<text transform="matrix(1 0 0 1 34.8516 599.0762)" fill="#010101" font-family="'Lato-Regular'" font-size="13">html,css,php</text>
<g>
	<path fill="#DB8127" d="M57.781,480.622v-2.392l-2.036-0.401c-0.101-0.594-0.256-1.17-0.461-1.722l1.561-1.36l-1.199-2.071
		l-1.965,0.668c-0.381-0.458-0.804-0.88-1.263-1.26l0.67-1.958l-2.078-1.196l-1.365,1.557c-0.553-0.205-1.13-0.36-1.727-0.46
		l-0.401-2.03h-2.399l-0.402,2.03c-0.596,0.1-1.174,0.255-1.727,0.46l-1.365-1.557l-2.078,1.196l0.671,1.958
		c-0.46,0.38-0.883,0.802-1.264,1.26l-1.965-0.668l-1.199,2.071l1.561,1.36c-0.205,0.552-0.36,1.128-0.461,1.722l-2.036,0.401v2.392
		l2.036,0.4c0.101,0.595,0.256,1.17,0.461,1.722l-1.561,1.361l1.199,2.071l1.965-0.668c0.381,0.457,0.804,0.879,1.264,1.259
		l-0.671,1.959l2.078,1.195l1.365-1.556c0.553,0.205,1.131,0.359,1.727,0.46l0.402,2.029h2.399l0.401-2.029
		c0.597-0.101,1.174-0.255,1.727-0.46l1.365,1.556l2.078-1.195l-0.67-1.959c0.459-0.38,0.882-0.802,1.263-1.259l1.965,0.668
		l1.199-2.071l-1.561-1.361c0.205-0.552,0.36-1.127,0.461-1.722L57.781,480.622z M52.66,479.426c0,3.493-2.84,6.324-6.344,6.324
		s-6.344-2.831-6.344-6.324c0-3.492,2.84-6.324,6.344-6.324S52.66,475.934,52.66,479.426z"/>
</g>
<g>
	<text transform="matrix(1.0082 0 0 1 65.0566 487.5762)" fill="#DB8127" font-family="'Lato-Bold'" font-size="18">SKILL</text>
</g>
<text transform="matrix(1 0 0 1 34.8516 687.8438)" fill="#6E7072" font-family="'Lato-Regular'" font-size="13">sketching  , reading novels , dancing</text>
<g>
	<text transform="matrix(1.0082 0 0 1 65.0566 668.7139)" fill="#DB8127" font-family="'Lato-Bold'" font-size="18">HOBBIES</text>
	<g id="XMLID_5_">
		<g id="XMLID_15_">
			<path id="XMLID_17_" fill="#DB8127" d="M46.485,657.482h-0.628v-2.646c0-0.692,0.563-1.255,1.255-1.255h0.701
				c0.346,0,0.627-0.28,0.627-0.626v-3.83h0.628v3.83c0,0.691-0.563,1.255-1.255,1.255h-0.701c-0.345,0-0.626,0.28-0.626,0.626
				V657.482z"/>
		</g>
		<path id="XMLID_6_" fill="#DB8127" d="M58.242,665.566l-2.02-6.901c-0.596-2.037-2.694-3.179-4.502-2.449l0,0
			c-0.742,0.299-1.297,0.861-1.63,1.548h-7.84c-0.333-0.687-0.887-1.249-1.629-1.548c-1.808-0.729-3.906,0.412-4.502,2.449
			l-2.02,6.901c-0.402,1.371,0.216,2.781,1.432,3.271c1.217,0.49,2.64-0.098,3.302-1.362l1.345-2.573
			c0.242,0.142,0.52,0.229,0.82,0.229c0.9,0,1.629-0.73,1.629-1.63c0-0.047-0.01-0.092-0.014-0.138h6.453
			c-0.004,0.046-0.014,0.091-0.014,0.138c0,0.899,0.73,1.63,1.629,1.63c0.519,0,0.976-0.247,1.274-0.625l1.552,2.969
			c0.662,1.265,2.085,1.853,3.301,1.362C58.025,668.348,58.643,666.938,58.242,665.566z M40.999,664.587
			c-0.599,0-1.085-0.486-1.085-1.085c0-0.6,0.486-1.084,1.085-1.084c0.599,0,1.084,0.484,1.084,1.084
			C42.083,664.101,41.597,664.587,40.999,664.587z M53.182,657.499c-0.038-0.003-0.075-0.011-0.113-0.012
			c0.01-0.001,0.018-0.005,0.029-0.005C53.127,657.482,53.153,657.496,53.182,657.499z M50.682,664.587
			c-0.599,0-1.085-0.486-1.085-1.085c0-0.6,0.486-1.084,1.085-1.084s1.085,0.484,1.085,1.084
			C51.767,664.101,51.281,664.587,50.682,664.587z"/>
	</g>
</g>
<polygon fill="none" stroke="#6E7072" stroke-width="0.5" stroke-miterlimit="10" points="227.952,531.635 230.746,535.844 
	235.612,537.2 232.473,541.158 232.686,546.206 227.952,544.443 223.217,546.206 223.43,541.158 220.291,537.2 225.157,535.844 "/>
<polygon fill="none" stroke="#6E7072" stroke-width="0.5" stroke-miterlimit="10" points="250.952,531.635 253.746,535.844 
	258.612,537.2 255.473,541.158 255.686,546.206 250.952,544.443 246.217,546.206 246.43,541.158 243.291,537.2 248.157,535.844 "/>
<polygon fill="none" stroke="#6E7072" stroke-width="0.5" stroke-miterlimit="10" points="250.952,588.71 253.746,592.919 
	258.612,594.275 255.473,598.233 255.686,603.281 250.952,601.519 246.217,603.281 246.43,598.233 243.291,594.275 248.157,592.919 
	"/>
<polygon fill="none" stroke="#6E7072" stroke-width="0.5" stroke-miterlimit="10" points="249.897,559.882 252.691,564.091 
	257.557,565.447 254.418,569.405 254.631,574.453 249.897,572.69 245.163,574.453 245.375,569.405 242.236,565.447 247.102,564.091 
	"/>
<text transform="matrix(1 0 0 1 34.8516 629.0762)" fill="#010101" font-family="'Lato-Regular'" font-size="13">c,c++</text>
<polygon fill="#FECA35" stroke="#BBBCBE" stroke-width="0.5" stroke-miterlimit="10" points="157.951,617.005 160.746,621.214 
	165.612,622.57 162.472,626.528 162.685,631.576 157.951,629.813 153.216,631.576 153.429,626.528 150.291,622.57 155.157,621.214 
	"/>
<polygon fill="#FECA35" stroke="#BBBCBE" stroke-width="0.5" stroke-miterlimit="10" points="181.201,617.005 183.996,621.214 
	188.862,622.57 185.722,626.528 185.935,631.576 181.201,629.813 176.466,631.576 176.679,626.528 173.541,622.57 178.407,621.214 
	"/>
<polygon fill="#FECA35" stroke="#BBBCBE" stroke-width="0.5" stroke-miterlimit="10" points="204.451,617.005 207.246,621.214 
	212.112,622.57 208.972,626.528 209.185,631.576 204.451,629.813 199.716,631.576 199.929,626.528 196.791,622.57 201.657,621.214 
	"/>
<polygon fill="none" stroke="#6E7072" stroke-width="0.5" stroke-miterlimit="10" points="226.773,617.005 229.567,621.214 
	234.433,622.57 231.294,626.528 231.507,631.576 226.773,629.813 222.039,631.576 222.251,626.528 219.112,622.57 223.978,621.214 
	"/>
<polygon fill="none" stroke="#6E7072" stroke-width="0.5" stroke-miterlimit="10" points="249.897,617.703 252.691,621.912 
	257.557,623.269 254.418,627.227 254.631,632.274 249.897,630.512 245.163,632.274 245.375,627.227 242.236,623.269 
	247.102,621.912 "/>
<g>
	<text transform="matrix(1.0082 0 0 1 327.0059 212.9756)"><tspan x="0" y="0" fill="#DB8127" font-family="'Lato-Bold'" font-size="18">E</tspan><tspan x="8.856" y="0" fill="#DB8127" font-family="'Lato-Bold'" font-size="18">DUCATION</tspan></text>
</g>
<g>
	<path fill-rule="evenodd" clip-rule="evenodd" fill="#DB8127" d="M310.895,204.105c0.336,1.485,0.844,3.903,0.754,4.542
		c-0.162,1.15-3.171,2.548-7.149,2.874c-3.979-0.326-6.987-1.724-7.149-2.874c-0.09-0.639,0.418-3.057,0.752-4.542l6.397,1.771
		L310.895,204.105z"/>
	<path fill-rule="evenodd" clip-rule="evenodd" fill="#DB8127" d="M304.499,197.459l-14.903,2.845l-0.025,0.834l4.491,1.243
		c0.001-0.009,0.021-0.011,0.058-0.009c0.828,0.055,10.38,2.898,10.38,2.898l14.929-4.133l-0.026-0.834L304.499,197.459z"/>
</g>
<rect x="293.832" y="235.915" fill="#FECA35" width="0.957" height="155.197"/>
<ellipse fill="#FECA35" cx="294.173" cy="232.843" rx="4.603" ry="4.588"/>
<ellipse fill="#FECA35" cx="293.832" cy="338.382" rx="4.603" ry="4.59"/>
<ellipse fill="#FECA35" cx="294.173" cy="391.111" rx="4.603" ry="4.59"/>
<g>
	<g>
		<text transform="matrix(1 0 0 1 311.877 237.646)"><tspan x="0" y="0" fill="#010101" font-family="'Lato-Regular'" font-size="11">2012-2013     X (Secondary)</tspan><tspan x="0" y="13.2" fill="#424242" font-family="'Lato-Regular'" font-size="11">Sri Anantheshwara English Medium High School,Udupi.</tspan><tspan x="0" y="26.4" fill="#424242" font-family="'Lato-Regular'" font-size="11">percentage : 72.64%</tspan><tspan x="0" y="52.8" fill="#010101" font-family="'Lato-Regular'" font-size="11">2013-2015    XII (Senior Secondary)</tspan><tspan x="0" y="66" fill="#424242" font-family="'Lato-Regular'" font-size="11">Mahatma Gandhi Memorial PU College,Udupi.</tspan><tspan x="0" y="79.2" fill="#424242" font-family="'Lato-Regular'" font-size="11">percentage : 71.33%</tspan><tspan x="0" y="105.6" fill="#010101" font-family="'Lato-Regular'" font-size="11">2015-2018    Bachelor of  Science(BSc)</tspan><tspan x="0" y="118.8" fill="#424242" font-family="'Lato-Regular'" font-size="11">Mahatma Gandhi Memorial College,Udupi.</tspan><tspan x="0" y="132" fill="#424242" font-family="'Lato-Regular'" font-size="11">percentage : 75.62%</tspan><tspan x="0" y="158.4" fill="#010101" font-family="'Lato-Regular'" font-size="11">2018-2020    Master of Computer Application(MCA)</tspan><tspan x="0" y="171.6" fill="#424242" font-family="'Lato-Regular'" font-size="11">Manipal Institute Of Technology ,Manipal.</tspan><tspan x="0" y="184.799" fill="#424242" font-family="'Lato-Regular'" font-size="11">cgpa : 6.89 (on scale of 10)</tspan></text>
	</g>
</g>
<g>
	<g>
		<g>
			<text transform="matrix(1 0 0 1 288.4868 488.9072)" fill="#010101" font-family="'Lato-Regular'" font-size="13">ENGLISH</text>
		</g>
		<g>
			<text transform="matrix(1 0 0 1 288.4868 516.9072)" fill="#010101" font-family="'Lato-Regular'" font-size="13">hindi</text>
		</g>
		<g>
			<text transform="matrix(1 0 0 1 288.4868 544.9063)" fill="#010101" font-family="'Lato-Regular'" font-size="13">kannada</text>
		</g>
		<text transform="matrix(1 0 0 1 288.4873 571.9072)" fill="#010101" font-family="'Lato-Regular'" font-size="13">tulu</text>
	</g>
	<rect x="376.39" y="475.941" fill="#A5A8AB" width="184.014" height="12.965"/>
	<rect x="376.39" y="475.941" fill="#FECA35" width="165.64" height="12.965"/>
	<rect x="376.39" y="503.941" fill="#A5A8AB" width="184.014" height="12.965"/>
	<rect x="376.39" y="503.941" fill="#FECA35" width="141.306" height="12.965"/>
	<rect x="376.39" y="531.941" fill="#A5A8AB" width="184.014" height="12.965"/>
	<rect x="376.39" y="531.941" fill="#FECA35" width="161.64" height="12.965"/>
	<rect x="376.39" y="558.941" fill="#A5A8AB" width="184.014" height="12.965"/>
	<rect x="376.39" y="558.941" fill="#FECA35" width="170.306" height="12.965"/>
	<g>
		<text transform="matrix(1.0082 0 0 1 327.0059 462.2461)" fill="#DB8127" font-family="'Lato-Bold'" font-size="18">LANGUAGE</text>
		<g>
			<g>
				<g>
					<g>
						<g>
							<path fill="#DB8127" d="M299.453,443.426c1.411,0.072,2.855-0.021,4.229,0.248c3.782,0.742,5.993,4.535,5.529,8.162
								c-0.372,2.91-1.819,5.115-4.639,6.129c-1.045,0.377-2.256,0.275-3.383,0.447c-0.374,0.057-0.806,0.199-1.067,0.453
								c-1,0.965-1.945,1.988-2.901,3c-0.376,0.396-0.77,0.684-1.348,0.436c-0.567-0.242-0.667-0.725-0.663-1.268
								c0.004-0.732-0.021-1.465,0.008-2.197c0.016-0.418-0.144-0.576-0.543-0.703c-2.904-0.916-4.877-3.461-5.084-6.502
								c-0.225-3.32,1.34-6.221,4.176-7.488c0.845-0.379,1.821-0.525,2.754-0.625c0.965-0.104,1.951-0.023,2.928-0.023
								C299.45,443.473,299.451,443.449,299.453,443.426z M299.353,449.645c1.49,0,2.981,0.021,4.471-0.02
								c0.273-0.008,0.749-0.24,0.771-0.414c0.062-0.496-0.389-0.518-0.768-0.518c-2.98,0-5.962-0.012-8.942,0.021
								c-0.253,0.002-0.685,0.271-0.718,0.469c-0.08,0.496,0.379,0.457,0.715,0.459
								C296.371,449.648,297.862,449.645,299.353,449.645z M297.521,452.463c-0.9,0-1.803-0.031-2.701,0.021
								c-0.238,0.014-0.627,0.258-0.658,0.445c-0.078,0.461,0.319,0.504,0.688,0.502c1.729-0.002,3.457-0.002,5.186,0
								c0.364,0.002,0.776-0.035,0.689-0.494c-0.037-0.197-0.46-0.436-0.721-0.453C299.18,452.426,298.35,452.463,297.521,452.463z"
								/>
						</g>
					</g>
					<g>
						<path fill="#DB8127" d="M310.618,451.576c2.11,0.301,3.989,2.379,4.206,4.732c0.265,2.859-0.996,4.984-3.646,6.092
							c-0.35,0.146-0.496,0.313-0.475,0.689c0.029,0.486,0.084,0.994-0.02,1.461c-0.079,0.355-0.317,0.807-0.611,0.943
							c-0.244,0.113-0.754-0.078-1.004-0.295c-0.625-0.543-1.207-1.146-1.733-1.785c-0.477-0.58-1.005-0.807-1.764-0.771
							c-1.754,0.082-3.181-0.635-4.255-2.016c-0.193-0.248-0.273-0.584-0.406-0.879c0.298-0.061,0.597-0.172,0.895-0.168
							c3.417,0.037,6.005-1.4,7.581-4.434C309.948,454.063,310.2,452.818,310.618,451.576z"/>
					</g>
				</g>
			</g>
			<path fill="#FFFFFF" d="M299.353,449.645c-1.49,0-2.981,0.004-4.472-0.002c-0.336-0.002-0.795,0.037-0.715-0.459
				c0.033-0.197,0.465-0.467,0.718-0.469c2.98-0.033,5.962-0.021,8.942-0.021c0.379,0,0.829,0.021,0.768,0.518
				c-0.021,0.174-0.497,0.406-0.771,0.414C302.334,449.666,300.843,449.645,299.353,449.645z"/>
			<path fill="#FFFFFF" d="M297.521,452.463c0.828,0,1.658-0.037,2.482,0.021c0.261,0.018,0.684,0.256,0.721,0.453
				c0.087,0.459-0.325,0.496-0.689,0.494c-1.729-0.002-3.457-0.002-5.186,0c-0.368,0.002-0.766-0.041-0.688-0.502
				c0.031-0.188,0.42-0.432,0.658-0.445C295.719,452.432,296.621,452.463,297.521,452.463z"/>
		</g>
	</g>
</g>
<g>
	<g>
		<g>
			<circle fill="#FECA35" cx="302.473" cy="672.996" r="13"/>
		</g>
		<g>
			<g>
				<g>
					<path fill="#FFFFFF" d="M312.529,671.467l-9.734-9.471l-9.732,9.471h2.586v9.666h14.295v-9.666H312.529z M297.539,679.246
						v-8.996l5.256-5.113l5.256,5.113v8.996H297.539z"/>
				</g>
			</g>
			<path fill="#FFFFFF" d="M305.473,680.996h-5.355v-6.324c0-1.479,1.199-2.676,2.678-2.676l0,0c1.479,0,2.678,1.197,2.678,2.676
				V680.996z"/>
		</g>
	</g>
	<g>
		<text transform="matrix(0.9412 0 0 1 322.5547 679.1709)" fill="#808184" font-family="'Lato-Regular'" font-size="13.9739">  “Sima Complex” Gundibail,Udupi </text>
	</g>
</g>
<g>
	<g>
		<circle fill="#FECA35" cx="302.473" cy="703.988" r="13"/>
		<path id="XMLID_4_" fill="#FFFFFF" d="M305.751,706.851c-0.188,0.081-0.355,0.206-0.489,0.362
			c-0.402,0.473-1.569,1.564-3.017,0.456c0,0-0.761-0.482-1.674-1.827c-0.06-0.089-0.127-0.175-0.197-0.256
			c-1.07-1.224-1.344-2.081-1.344-2.081c-0.707-1.682,0.646-2.533,1.204-2.804c0.185-0.09,0.348-0.22,0.475-0.382
			c1.188-1.524,0.303-3.226-0.307-4.08c-0.356-0.499-0.893-0.849-1.501-0.925c-2.005-0.252-3.26,2.227-3.26,2.227
			s-1.15,1.696-0.775,4.286c0.005,0.033,0.01,0.066,0.016,0.1c0.424,2.576,2.869,5.889,2.869,5.889s2.586,3.204,4.971,4.266
			c0.031,0.014,0.062,0.027,0.093,0.04c2.41,1.019,4.343,0.335,4.343,0.335s2.716-0.587,2.979-2.59
			c0.08-0.607-0.123-1.216-0.517-1.687C308.948,707.373,307.526,706.088,305.751,706.851z"/>
	</g>
	<g>
		<text transform="matrix(1 0 0 1 327.9775 707.8311)" fill="#808184" font-family="'Lato-Regular'" font-size="13">+91 8867964857</text>
	</g>
</g>
<g>
	<g>
		<g>
			<circle fill="#FECA35" cx="302.473" cy="642.003" r="13"/>
		</g>
		<g>
			<path fill="#FFFFFF" d="M294.477,635.334h15.991c0.356,0,0.683,0.141,0.919,0.364l-8.916,7.644l-8.912-7.641
				C293.797,635.475,294.121,635.334,294.477,635.334z"/>
			<polygon fill="#FFFFFF" points="293.134,636.507 299.584,642.107 293.134,647.593 			"/>
			<path fill="#FFFFFF" d="M310.468,648.672h-15.991c-0.359,0-0.682-0.133-0.921-0.357l6.604-5.661l2.311,2.022l2.313-2.022
				l6.603,5.661C311.145,648.539,310.82,648.672,310.468,648.672z"/>
			<polygon fill="#FFFFFF" points="311.812,647.593 305.363,642.107 311.812,636.505 			"/>
		</g>
	</g>
	<g>
		<text transform="matrix(1 0 0 1 328.1826 647.5195)" fill="#808184" font-family="'Lato-Regular'" font-size="13">tripthibhaskar@gmail.com</text>
	</g>
</g>
<g>
	<g>
		<text transform="matrix(1.0082 0 0 1 327.0059 613.1152)" fill="#DB8127" font-family="'Lato-Bold'" font-size="18">CONTACT</text>
	</g>
</g>
<g id="XMLID_1_">
	<g>
		<g id="XMLID_93_">
			<path id="XMLID_94_" fill="#DB8127" d="M290.054,617.658c-0.268,0-0.483-0.216-0.483-0.482v-20.455
				c0-0.267,0.216-0.483,0.483-0.483c0.267,0,0.482,0.217,0.482,0.483v20.455C290.536,617.442,290.32,617.658,290.054,617.658z"/>
		</g>
		<path id="XMLID_86_" fill="#DB8127" d="M307.689,596.196h-15.098c-0.7,0-1.268,0.567-1.268,1.268v18.968
			c0,0.7,0.567,1.268,1.268,1.268h15.098c0.7,0,1.268-0.567,1.268-1.268v-18.968C308.957,596.764,308.39,596.196,307.689,596.196z
			 M300.141,599.456c1.149,0,2.082,0.933,2.082,2.082s-0.933,2.082-2.082,2.082s-2.082-0.933-2.082-2.082
			S298.991,599.456,300.141,599.456z M296.153,606.783c0-1.554,1.26-2.813,2.813-2.813h2.349c1.554,0,2.813,1.259,2.813,2.813v2.03
			c0,0.216-0.177,0.393-0.394,0.393h-7.188c-0.216,0-0.393-0.177-0.393-0.393V606.783z M303.886,614.217h-7.49
			c-0.134,0-0.242-0.079-0.242-0.177c0-0.099,0.108-0.178,0.242-0.178h7.49c0.134,0,0.242,0.079,0.242,0.178
			C304.128,614.138,304.02,614.217,303.886,614.217z M305.215,612.915h-10.148c-0.133,0-0.241-0.08-0.241-0.178
			c0-0.099,0.108-0.178,0.241-0.178h10.148c0.134,0,0.241,0.079,0.241,0.178C305.456,612.835,305.349,612.915,305.215,612.915z
			 M305.215,611.612h-10.148c-0.133,0-0.241-0.079-0.241-0.178c0-0.098,0.108-0.178,0.241-0.178h10.148
			c0.134,0,0.241,0.08,0.241,0.178C305.456,611.533,305.349,611.612,305.215,611.612z"/>
	</g>
</g>
<ellipse fill="#FECA35" cx="294.173" cy="285.776" rx="4.603" ry="4.59"/>
<text transform="matrix(1.0082 0 0 1 35.1563 724.8311)" fill="#DB8127" font-family="'Lato-Bold'" font-size="18">references</text>
<text transform="matrix(1 0 0 1 35.1563 751.8438)"><tspan x="0" y="0" fill="#808184" font-family="'Lato-Regular'" font-size="13">     </tspan><tspan x="13.779" y="0" fill="#424242" font-family="'Lato-Regular'" font-size="15">Dr.Karunakar A Kotegar</tspan><tspan x="159.938" y="0" fill="#808184" font-family="'Lato-Regular'" font-size="13">  </tspan><tspan x="0" y="18" fill="#808184" font-family="'Lato-Regular'" font-size="13">     Professor and Head of the Dept  </tspan><tspan x="0" y="36" fill="#808184" font-family="'Lato-Regular'" font-size="13">     Dept of Computer Application , MIT Manipal</tspan><tspan x="0" y="54" fill="#808184" font-family="'Lato-Regular'" font-size="13">     karunakar.ak@manipal.edu </tspan></text>
<ellipse fill="#FECA35" cx="39.454" cy="747.255" rx="4.603" ry="4.589"/>
<rect x="340.695" y="742.666" fill="none" width="269" height="108.585"/>
<text transform="matrix(1 0 0 1 340.6953 753.3154)"><tspan x="0" y="0" fill="#424242" font-family="'Lato-Regular'" font-size="15">Tojo Thomas</tspan><tspan x="0" y="18" fill="#808184" font-family="'Lato-Regular'" font-size="13">Assistant Professor-Senior Scale</tspan><tspan x="0" y="36" fill="#808184" font-family="'Lato-Regular'" font-size="13">Dept of Computer Application ,MIT Manipal</tspan><tspan x="0" y="54" fill="#808184" font-family="'Lato-Regular'" font-size="13">lindatojo@gmail.com </tspan></text>
<ellipse fill="#FECA35" cx="332.785" cy="747.255" rx="4.603" ry="4.589"/>
<g>
	<text transform="matrix(1.0082 0 0 1 65.0566 246.6895)" fill="#DB8127" font-family="'Lato-Bold'" font-size="18">about me</text>
</g>
<image overflow="visible" width="498" height="554" xlink:href="../Snaps/LRM_EXPORT_20190825_225141.png"  transform="matrix(0.2741 0 0 0.2741 75.2891 51.5859)">
</image>
</svg>
